<svg xmlns="http://www.w3.org/2000/svg" viewBox="0 0 48 48"><path fill="#4285F4" d="M45.12 24.5c0-1.56-.14-3.06-.4-4.5H24v8.51h11.84c-.51 2.75-2.06 5.08-4.39 6.64v5.52h7.11c4.16-3.83 6.56-9.47 6.56-16.17z"/><path fill="#34A853" d="M24 46c5.41 0 9.95-1.79 13.27-4.84l-7.11-5.52c-1.79 1.2-4.08 1.92-6.16 1.92-4.76 0-8.79-3.21-10.23-7.54H1.04v5.7C4.88 41.07 13.91 46 24 46z"/><path fill="#FBBC05" d="M13.77 28.18c-.24-.72-.38-1.49-.38-2.18s.14-1.46.38-2.18v-5.7H1.04C.26 20.54 0 22.68 0 24.5c0 1.82.26 3.96 1.04 5.7l12.73-3.02z"/><path fill="#EA4335" d="M24 10.75c2.74 0 5.19.94 7.11 2.8l6.31-6.31C33.95 4.18 29.41 2.5 24 2.5 13.91 2.5 4.88 7.43 1.04 14.93l12.73 5.7c1.44-4.33 5.47-7.88 10.23-7.88z"/></svg>
